<?xml version="1.0" encoding="utf-8"?>
<!-- Svg Vector Icons : http://www.onlinewebfonts.com/icon -->
<!DOCTYPE svg PUBLIC "-//W3C//DTD SVG 1.1//EN" "http://www.w3.org/Graphics/SVG/1.1/DTD/svg11.dtd">
<svg version="1.1" xmlns="http://www.w3.org/2000/svg" xmlns:xlink="http://www.w3.org/1999/xlink" x="0px" y="0px" viewBox="0 0 1000 1000" enable-background="new 0 0 1000 1000" xml:space="preserve">
<metadata> Svg Vector Icons : http://www.onlinewebfonts.com/icon </metadata>
<g><path d="M961.5,515.6c15.6,0,25.9-13,25.9-25.9V188.9c0-57-46.7-103.7-103.7-103.7h-770C56.7,85.2,10,131.9,10,188.9v622.2c0,57,46.7,103.7,103.7,103.7h772.6c57,0,103.7-46.7,103.7-103.7V697c0-15.6-13-25.9-25.9-25.9c-15.6,0-25.9,13-25.9,25.9l0,0l0,0l0,0v108.9c0,31.1-23.3,54.4-54.4,54.4H443l0,0H118.9c-28.5,0-54.4-23.3-54.4-54.4V194.1c0-31.1,25.9-54.4,54.4-54.4h762.2c28.5,0,54.4,23.3,54.4,54.4v293C935.6,502.6,948.5,515.6,961.5,515.6L961.5,515.6L961.5,515.6z M271.9,282.2c0-7.8-5.2-15.6-15.6-15.6h-72.6c-7.8,0-15.6,5.2-15.6,15.6v72.6c0,7.8,7.8,15.6,15.6,15.6h72.6c7.8,0,15.6-5.2,15.6-15.6V282.2L271.9,282.2L271.9,282.2z M271.9,466.3c0-7.8-5.2-15.6-15.6-15.6h-72.6c-7.8,0-15.6,7.8-15.6,15.6v72.6c0,7.8,7.8,15.6,15.6,15.6h72.6c7.8,0,15.6-5.2,15.6-15.6V466.3L271.9,466.3L271.9,466.3z M256.3,637.4h-72.6c-7.8,0-15.6,7.8-15.6,15.6v72.6c0,7.8,7.8,15.6,15.6,15.6h72.6c7.8,0,15.6-5.2,15.6-15.6V653C271.9,642.6,264.1,637.4,256.3,637.4L256.3,637.4L256.3,637.4z M437.8,588.1l-2.6,5.2v5.2L430,710v25.9l25.9-10.4l106.3-38.9l5.2-2.6l2.6-5.2L855.2,303l10.4-15.6L850,277l-95.9-72.6l-15.6-10.4l-10.4,15.6L437.8,588.1L437.8,588.1z M733.3,238.1l95.9,72.6l-2.6-25.9L541.5,660.7l7.8-5.2L443,694.4l23.3,18.1l2.6-108.9l-5.2,10.4L759.3,233L733.3,238.1L733.3,238.1z M772.2,378.1L793,347l-83-59.6l-20.7,31.1L772.2,378.1L772.2,378.1z"/></g>
</svg>